<?xml version="1.0" standalone="no"?>
<!DOCTYPE svg PUBLIC "-//W3C//DTD SVG 20010904//EN"
 "http://www.w3.org/TR/2001/REC-SVG-20010904/DTD/svg10.dtd">
<svg version="1.0" xmlns="http://www.w3.org/2000/svg"
 width="200.000000pt" height="200.000000pt" viewBox="0 0 200.000000 200.000000"
 preserveAspectRatio="xMidYMid meet">

<g transform="translate(0.000000,200.000000) scale(0.100000,-0.100000)"
fill="#000000" stroke="none">
<path d="M0 1000 l0 -1000 1000 0 1000 0 0 1000 0 1000 -1000 0 -1000 0 0
-1000z m645 210 c-5 -8 -11 -8 -17 -2 -6 6 -7 16 -3 22 5 8 11 8 17 2 6 -6 7
-16 3 -22z m231 -5 c-6 -29 -4 -34 9 -29 8 3 27 3 41 0 26 -7 26 -9 21 -63 -5
-51 -20 -84 -31 -72 -3 3 0 24 6 47 12 49 6 72 -20 72 -26 0 -38 -17 -52 -73
-7 -26 -16 -47 -21 -47 -12 0 -12 3 12 108 12 50 26 92 31 92 6 0 8 -14 4 -35z
m-606 -21 c9 -22 15 -24 69 -24 57 0 59 1 70 30 11 32 12 33 35 24 14 -5 16
-34 16 -214 0 -180 -2 -209 -16 -214 -9 -3 -58 -6 -109 -6 -72 0 -97 4 -109
16 -24 23 -24 385 0 408 18 19 32 13 44 -20z m522 19 c24 -22 23 -39 -7 -68
-16 -17 -35 -25 -58 -25 -32 0 -35 -3 -41 -35 -6 -31 -26 -50 -26 -25 0 10 27
129 36 158 5 18 74 15 96 -5z m-172 -98 c-15 -71 -36 -87 -25 -20 8 58 26 105
32 88 2 -7 -1 -37 -7 -68z m475 61 c28 -20 26 -83 -4 -107 -47 -38 -101 -12
-101 48 0 59 59 93 105 59z m174 -4 c6 -12 6 -34 0 -63 -16 -70 -30 -72 -27
-4 3 58 2 60 -22 60 -21 0 -28 -8 -40 -45 -25 -71 -27 -75 -34 -69 -4 4 0 35
9 71 l16 64 44 2 c34 1 47 -3 54 -16z m145 5 c11 -8 17 -23 14 -38 -3 -21 -9
-24 -51 -27 -49 -3 -57 -15 -24 -36 12 -8 22 -7 37 1 11 8 21 9 25 3 7 -11
-26 -30 -51 -30 -51 0 -72 75 -32 117 24 26 55 30 82 10z m-683 -226 c13 -11
21 -23 17 -27 -5 -4 -16 0 -26 9 -23 21 -56 22 -72 2 -16 -19 0 -40 38 -50 15
-4 33 -11 39 -17 33 -27 -2 -78 -52 -78 -38 0 -82 31 -71 49 6 9 12 7 23 -8
18 -27 78 -29 87 -4 8 19 -17 43 -43 43 -19 0 -51 29 -51 47 0 21 38 53 64 53
13 0 34 -9 47 -19z m122 -32 c20 -1 20 -2 -3 -8 -18 -5 -28 -18 -36 -46 -13
-46 -10 -55 17 -55 10 0 19 -4 19 -10 0 -15 -57 -12 -63 4 -3 7 -1 33 5 56 9
34 8 44 -3 51 -11 7 -11 9 2 9 9 0 20 10 24 23 l8 22 4 -22 c3 -15 12 -23 26
-24z m259 -15 c-23 -9 -33 -22 -41 -51 -6 -21 -11 -44 -11 -50 0 -7 -4 -13
-10 -13 -13 0 -13 4 1 74 7 34 16 55 23 53 6 -2 20 -1 31 3 33 12 40 -2 7 -16z
m-112 -3 c26 -49 -6 -111 -57 -111 -55 0 -81 59 -47 108 20 30 88 31 104 3z
m258 7 c7 -7 12 -22 12 -35 0 -21 -4 -23 -50 -23 -37 0 -50 -4 -50 -15 0 -20
32 -36 51 -24 7 5 20 9 28 9 11 0 11 -3 1 -15 -15 -18 -71 -20 -88 -3 -17 17
-15 78 5 100 18 20 73 24 91 6z"/>
<path d="M340 825 c0 -35 0 -35 45 -35 45 0 45 0 45 35 0 35 0 35 -45 35 -45
0 -45 0 -45 -35z"/>
<path d="M710 1181 c0 -10 -3 -26 -6 -35 -5 -12 0 -16 22 -16 40 0 56 13 52
41 -2 19 -10 25 -35 27 -27 3 -33 0 -33 -17z"/>
<path d="M1020 1140 c-15 -28 -9 -60 13 -74 28 -18 52 4 52 50 0 35 -3 39 -27
42 -19 2 -30 -3 -38 -18z"/>
<path d="M1347 1154 c-15 -16 -5 -24 29 -24 24 0 34 4 32 13 -5 13 -50 22 -61
11z"/>
<path d="M919 879 c-25 -25 -22 -57 8 -76 19 -13 24 -12 42 6 25 25 27 54 5
75 -20 21 -30 20 -55 -5z"/>
<path d="M1184 883 c-17 -17 -16 -18 20 -21 45 -4 54 2 36 23 -16 20 -35 19
-56 -2z"/>
</g>
</svg>
